<?xml version="1.0" encoding="UTF-8" standalone="no"?>
<!-- Created with Inkscape (http://www.inkscape.org/) -->

<svg
   xmlns:dc="http://purl.org/dc/elements/1.1/"
   xmlns:cc="http://creativecommons.org/ns#"
   xmlns:rdf="http://www.w3.org/1999/02/22-rdf-syntax-ns#"
   xmlns:svg="http://www.w3.org/2000/svg"
   xmlns="http://www.w3.org/2000/svg"
   xmlns:sodipodi="http://sodipodi.sourceforge.net/DTD/sodipodi-0.dtd"
   xmlns:inkscape="http://www.inkscape.org/namespaces/inkscape"
   width="744.09448819"
   height="1052.3622047"
   id="svg2"
   version="1.1"
   inkscape:version="0.48.2 r9819"
   sodipodi:docname="player.svg">
  <defs
     id="defs4" />
  <sodipodi:namedview
     id="base"
     pagecolor="#ffffff"
     bordercolor="#666666"
     borderopacity="1.0"
     inkscape:pageopacity="0.0"
     inkscape:pageshadow="2"
     inkscape:zoom="3.959798"
     inkscape:cx="177.02224"
     inkscape:cy="980.16532"
     inkscape:document-units="px"
     inkscape:current-layer="layer1"
     showgrid="false"
     inkscape:window-width="1580"
     inkscape:window-height="918"
     inkscape:window-x="0"
     inkscape:window-y="0"
     inkscape:window-maximized="0" />
  <metadata
     id="metadata7">
    <rdf:RDF>
      <cc:Work
         rdf:about="">
        <dc:format>image/svg+xml</dc:format>
        <dc:type
           rdf:resource="http://purl.org/dc/dcmitype/StillImage" />
        <dc:title></dc:title>
      </cc:Work>
    </rdf:RDF>
  </metadata>
  <g
     inkscape:label="Layer 1"
     inkscape:groupmode="layer"
     id="layer1">
    <path
       sodipodi:type="arc"
       style="fill:#ffaaaa"
       id="path2991"
       sodipodi:cx="275.77164"
       sodipodi:cy="172.51932"
       sodipodi:rx="33.335033"
       sodipodi:ry="112.12693"
       d="m 309.10667,172.51932 a 33.335033,112.12693 0 1 1 -66.67007,0 33.335033,112.12693 0 1 1 66.67007,0 z"
       transform="matrix(0.04499771,0,0,0.04459232,162.92379,29.408366)" />
    <path
       transform="matrix(0.04499771,0,0,0.04459232,178.84062,29.408366)"
       d="m 309.10667,172.51932 a 33.335033,112.12693 0 1 1 -66.67007,0 33.335033,112.12693 0 1 1 66.67007,0 z"
       sodipodi:ry="112.12693"
       sodipodi:rx="33.335033"
       sodipodi:cy="172.51932"
       sodipodi:cx="275.77164"
       id="path3015"
       style="fill:#ffaaaa"
       sodipodi:type="arc" />
    <path
       sodipodi:type="arc"
       style="fill:#ff0000;fill-rule:evenodd;stroke:#000000;stroke-width:1px;stroke-linecap:butt;stroke-linejoin:miter;stroke-opacity:1"
       id="path2985"
       sodipodi:cx="417.19299"
       sodipodi:cy="234.13863"
       sodipodi:rx="243.44676"
       sodipodi:ry="78.791901"
       d="m 660.63976,234.13863 a 243.44676,78.791901 0 1 1 -486.89353,0 243.44676,78.791901 0 1 1 486.89353,0 z"
       transform="matrix(0.04082446,0,0,0.03733757,166.16161,31.985969)" />
    <path
       sodipodi:type="arc"
       style="fill:#000000;fill-rule:evenodd;stroke:#000000;stroke-width:1px;stroke-linecap:butt;stroke-linejoin:miter;stroke-opacity:1"
       id="path2987"
       sodipodi:cx="447.49759"
       sodipodi:cy="261.41275"
       sodipodi:rx="57.578693"
       sodipodi:ry="57.578693"
       d="m 505.07628,261.41275 a 57.578693,57.578693 0 1 1 -115.15738,0 57.578693,57.578693 0 1 1 115.15738,0 z"
       transform="matrix(0.05978698,0,0,0.0597654,156.4658,24.59396)" />
  </g>
</svg>
